<?xml version="1.0" standalone="no"?>
<!DOCTYPE svg PUBLIC "-//W3C//DTD SVG 20010904//EN"
 "http://www.w3.org/TR/2001/REC-SVG-20010904/DTD/svg10.dtd">
<svg version="1.0" xmlns="http://www.w3.org/2000/svg"
 width="604.000000pt" height="604.000000pt" viewBox="0 0 604.000000 604.000000"
 preserveAspectRatio="xMidYMid meet">
<metadata>
Created by potrace 1.11, written by Peter Selinger 2001-2013
</metadata>
<g transform="translate(0.000000,604.000000) scale(0.100000,-0.100000)"
fill="#000000" stroke="none">
<path d="M339 5572 c-12 -2 -14 -189 -14 -1407 0 -772 3 -1407 7 -1410 4 -4
20 2 36 14 17 12 33 21 36 21 4 0 23 11 44 24 20 12 39 23 42 22 3 0 19 9 37
22 68 48 618 319 688 338 10 3 327 135 380 159 17 7 68 30 115 51 47 20 87 40
90 44 8 13 5 2109 -4 2117 -7 7 -1421 12 -1457 5z"/>
<path d="M2237 5565 c-9 -26 -1 -1910 8 -1908 6 1 48 16 95 34 105 39 113 41
125 45 6 1 30 10 55 19 168 62 753 232 930 270 91 20 280 67 296 74 20 9 20
11 20 742 l-1 734 -762 0 c-500 0 -764 -3 -766 -10z"/>
<path d="M4200 5572 c-7 -3 -10 -236 -10 -679 l0 -675 28 6 c15 4 36 8 47 11
70 17 333 73 370 79 11 2 36 7 55 10 86 16 154 27 181 31 17 2 42 6 57 9 32 7
71 13 132 21 25 3 56 8 70 10 14 2 45 7 70 10 25 3 56 8 70 10 14 2 45 7 70
10 25 4 56 8 70 10 14 3 45 7 70 10 25 3 54 7 65 9 11 2 49 7 85 12 36 4 68 9
73 10 4 1 17 2 30 3 l23 1 -1 543 c-1 298 -3 544 -4 547 -1 6 -1535 7 -1551 2z"/>
<path d="M5739 4136 c-2 -2 -33 -7 -69 -10 -36 -4 -76 -8 -89 -11 -13 -2 -49
-7 -80 -11 -31 -3 -63 -7 -71 -9 -54 -10 -127 -21 -205 -31 -22 -2 -47 -7 -56
-10 -9 -2 -32 -7 -50 -9 -19 -3 -43 -7 -54 -9 -34 -7 -199 -38 -225 -42 -14
-2 -45 -9 -70 -14 -25 -6 -58 -13 -75 -15 -16 -2 -48 -9 -70 -15 -22 -6 -60
-15 -85 -20 -25 -6 -56 -13 -68 -15 -168 -38 -536 -132 -717 -183 -38 -11
-104 -30 -145 -42 -121 -34 -384 -118 -540 -172 -80 -27 -152 -51 -160 -53
-16 -4 -184 -64 -320 -115 -47 -18 -91 -32 -97 -33 -7 0 -13 -4 -13 -9 0 -4
-6 -8 -12 -8 -24 0 -496 -192 -656 -266 -40 -19 -75 -34 -77 -34 -33 0 -962
-463 -1002 -499 -7 -6 -16 -11 -20 -11 -4 0 -50 -25 -102 -55 -51 -30 -97 -55
-102 -55 -5 0 -9 -4 -9 -9 0 -5 -8 -11 -17 -14 -10 -4 -36 -18 -58 -32 -22
-13 -51 -30 -65 -37 -14 -7 -27 -16 -30 -19 -4 -6 -5 -1920 -1 -1939 1 -7
1818 -7 1824 0 2 3 24 43 48 90 24 47 48 89 52 95 4 5 31 51 58 100 28 50 66
113 85 142 19 28 34 54 34 58 0 4 13 25 28 48 16 23 58 87 93 142 53 82 232
343 261 380 4 6 39 53 78 105 74 100 108 145 125 164 6 6 32 39 58 73 26 34
53 68 60 75 7 7 30 35 52 63 22 27 49 59 60 71 11 11 41 45 67 75 73 85 84 98
176 199 95 103 449 459 553 555 170 157 199 183 254 230 32 28 71 62 87 78 16
15 31 27 33 27 2 0 17 12 33 28 15 15 48 43 72 62 25 19 63 51 85 71 22 19 94
78 160 129 66 52 122 97 125 100 3 4 68 55 145 114 77 59 148 113 157 121 9 7
29 22 45 32 15 9 31 21 34 26 3 5 18 16 32 25 46 30 447 324 447 328 0 5 -6 5
-11 0z"/>
<path d="M5715 3612 c-16 -10 -31 -20 -33 -24 -2 -5 -8 -8 -13 -8 -8 0 -40
-22 -173 -117 -31 -23 -108 -81 -171 -131 -5 -4 -30 -23 -55 -42 -24 -19 -50
-39 -56 -45 -6 -5 -33 -28 -60 -50 -26 -22 -66 -56 -89 -75 -23 -19 -68 -57
-100 -85 -67 -57 -218 -190 -284 -250 -99 -91 -121 -111 -236 -224 -207 -202
-394 -419 -381 -440 3 -4 384 -7 848 -6 l843 0 2 490 c1 406 9 930 14 962 5
28 -3 63 -13 62 -7 0 -26 -8 -43 -17z"/>
<path d="M3654 1702 c-11 -7 -183 -214 -234 -282 -14 -18 -29 -38 -35 -44 -5
-6 -23 -29 -40 -51 -16 -22 -33 -44 -38 -50 -4 -5 -39 -53 -78 -105 -38 -52
-74 -101 -80 -108 -18 -22 -194 -285 -225 -335 -59 -99 -73 -124 -124 -225
-58 -116 -82 -179 -72 -186 4 -2 167 -2 362 1 195 2 875 5 1511 6 l1156 2 -1
692 0 693 -1046 0 c-575 0 -1050 -4 -1056 -8z"/>
</g>
</svg>
